<?xml version="1.0" encoding="UTF-8" standalone="no"?>
<svg width="39px" height="87px" viewBox="0 0 39 87" version="1.1" xmlns="http://www.w3.org/2000/svg" xmlns:xlink="http://www.w3.org/1999/xlink">
    <!-- Generator: Sketch 3.8.3 (29802) - http://www.bohemiancoding.com/sketch -->
    <title>nav-arrow</title>
    <desc>Created with Sketch.</desc>
    <defs></defs>
    <g id="Web" stroke="none" stroke-width="1" fill="none" fill-rule="evenodd">
        <g id="Forward-Web" transform="translate(0.000000, -39.000000)">
            <g id="nav-arrow" transform="translate(-5.000000, 39.000000)">
                <path d="M0,71.459 L0,83.648 C0,85.196 0.652,86.261 1.97,86.866 C2.584,87.02 2.998,87.088 3.219,87.088 L3.222,87.088 L3.227,87.088 C4.168,87.088 4.946,86.75 5.543,86.08 L9.91,81.37 L9.905,81.365 L0,71.459 L0,71.459 Z" id="Shape" fill="#F2905C"></path>
                <polygon id="Shape" fill="#E4B474" points="10.3 61.371 1.327 52.397 0 51.071 0 53.828 0 71.459 9.906 81.366 19.676 70.832 19.717 70.788"></polygon>
                <polygon id="Shape" fill="#D6CC90" points="21.187 49.632 0 28.446 0 33.518 0 34.029 0 51.071 1.327 52.397 10.3 61.371 19.717 70.788 27.917 61.946 30.604 59.049"></polygon>
                <polygon id="Shape" fill="#B5D2C3" points="39.68 49.272 3.55271368e-15 9.591 3.55271368e-15 28.446 30.608 59.053"></polygon>
                <path d="M42.51,46.219 C43.106,45.536 43.405,44.7 43.405,43.683 C43.405,42.655 43.106,41.809 42.51,41.137 L5.543,1.276 C4.938,0.574 4.205,0.219 3.352,0.219 C2.918,0.219 2.467,0.305 1.977,0.478 C0.661,1.161 0,2.236 0,3.707 L0,9.591 L39.68,49.272 L42.51,46.219 L42.51,46.219 Z" id="Shape" fill="#A2D4DA"></path>
            </g>
        </g>
    </g>
</svg>